<?xml version="1.0" encoding="utf-8"?>
<?xml-stylesheet type="text/xsl" href="rss1.xsl"?>
<rss version="2.0" xmlns:atom="http://www.w3.org/2005/Atom" xmlns:content="http://purl.org/rss/1.0/modules/content/" xmlns:dc="http://purl.org/dc/elements/1.1/" xmlns:media="http://search.yahoo.com/mrss/">
<channel>
 <title>Getty</title>
 <link>http://www.gettyimg.com/</link>
 <atom:link href="http://www.gettyimg.com/" rel="self" type="application/rss+xml" />

 
                <item>
                <title><![CDATA[【PRORES HD】Taylor Swift Prores Adittion 2]]></title>
                <link><![CDATA[https://sharemania.us/threads/taylor-swift-prores-adittion-2.237503/]]></link>
                <description><![CDATA[<article>
<blockquote class="messageText SelectQuoteContainer ugc baseHtml">
vote and i'll share the winner
<div class="messageTextEndMarker">&nbsp;</div>
</blockquote>
</article>]]></description>
                <author><![CDATA[unknown8YThu]]></author>
                </item>

                
                <item>
                <title><![CDATA[【Live Audios (lossy)】MP3 - What Was I Made For? (From The Motion Picture "Barbie") [Live from the 66th Annual GRAMMY Awards]]]></title>
                <link><![CDATA[https://sharemania.us/threads/what-was-i-made-for-from-the-motion-picture-barbie-live-from-the-66th-annual-grammy-awards.237502/]]></link>
                <description><![CDATA[<article>
<blockquote class="messageText SelectQuoteContainer ugc baseHtml">
<img src="https://lastfm.freetls.fastly.net/i/u/770x0/4ddf080ccbc409d97adf85d32c04b94b.jpg#4ddf080ccbc409d97adf85d32c04b94b" class="bbCodeImage LbImage" alt="[​IMG]" data-url="https://lastfm.freetls.fastly.net/i/u/770x0/4ddf080ccbc409d97adf85d32c04b94b.jpg#4ddf080ccbc409d97adf85d32c04b94b" style=""><br>
<br>
<br>
<div class="bbCodeBlock bbCodeVfcHH HiddenContent">
<div class="attribution type">Hidden Content:</div>
<blockquote>You must reply before you can see the hidden data contained here.</blockquote>
</div>
<div class="messageTextEndMarker">&nbsp;</div>
</blockquote>
</article>]]></description>
                <author><![CDATA[oxyttocinn]]></author>
                </item>

                
                <item>
                <title><![CDATA[【PRORES SD】Avril Lavigne - The Best Damn Thing [Master ProRes].mov]]></title>
                <link><![CDATA[https://sharemania.us/threads/avril-lavigne-the-best-damn-thing-master-prores-mov.237504/]]></link>
                <description><![CDATA[<article>
<blockquote class="messageText SelectQuoteContainer ugc baseHtml">
<img src="https://i.imgur.com/9TcU7FG.jpeg" class="bbCodeImage LbImage" alt="[​IMG]" data-url="https://i.imgur.com/9TcU7FG.jpeg" style=""> <img src="https://i.imgur.com/eEiJ6xn.jpeg" class="bbCodeImage LbImage" alt="[​IMG]" data-url="https://i.imgur.com/eEiJ6xn.jpeg" style=""> <img src="https://i.imgur.com/A1A6SJo.jpeg" class="bbCodeImage LbImage" alt="[​IMG]" data-url="https://i.imgur.com/A1A6SJo.jpeg" style=""> <img src="https://i.imgur.com/UuIMLCI.jpeg" class="bbCodeImage LbImage" alt="[​IMG]" data-url="https://i.imgur.com/UuIMLCI.jpeg" style=""> <img src="https://i.imgur.com/91CYQGM.jpeg" class="bbCodeImage LbImage" alt="[​IMG]" data-url="https://i.imgur.com/91CYQGM.jpeg" style=""> <img src="https://i.imgur.com/yPNBTDC.jpeg" class="bbCodeImage LbImage" alt="[​IMG]" data-url="https://i.imgur.com/yPNBTDC.jpeg" style=""> <img src="https://i.imgur.com/9CvgjNe.jpeg" class="bbCodeImage LbImage" alt="[​IMG]" data-url="https://i.imgur.com/9CvgjNe.jpeg" style=""><br>
<br>
<div class="ToggleTriggerAnchor bbCodeSpoilerContainer">
<button type="button" class="button bbCodeSpoilerButton ToggleTrigger Tooltip JsOnly" data-target="> .SpoilerTarget"><span>Spoiler: <span class="SpoilerTitle">MediaInfo</span></span></button>
<div class="SpoilerTarget bbCodeSpoilerText">General<br>
Format : MPEG-4<br>
Format profile : QuickTime<br>
Codec ID : qt 0000.02 (qt )<br>
File size : 1.74 GiB<br>
Duration : 3 min 49 s<br>
Overall bit rate mode : Variable<br>
Overall bit rate : 65.3 Mb/s<br>
Frame rate : 29.970 FPS<br>
Writing application : Lavf57.71.100<br>
<br>
Video<br>
ID : 1<br>
Format : ProRes<br>
Format version : Version 0<br>
Format profile : 422 HQ<br>
Codec ID : apch<br>
Duration : 3 min 49 s<br>
Bit rate mode : Variable<br>
Bit rate : 63.8 Mb/s<br>
Width : 720 pixels<br>
Height : 512 pixels<br>
Display aspect ratio : 5:3<br>
Frame rate mode : Constant<br>
Frame rate : 29.970 (30000/1001) FPS<br>
Color space : YUV<br>
Chroma subsampling : 4:2:2<br>
Scan type : Interlaced<br>
Scan order : Bottom Field First<br>
Bits/(Pixel*Frame) : 5.773<br>
Stream size : 1.70 GiB (98%)<br>
Writing library : arh0<br>
Language : English<br>
Matrix coefficients : BT.601<br>
<br>
Audio<br>
ID : 2<br>
Format : PCM<br>
Format settings : Little / Signed<br>
Codec ID : sowt<br>
Duration : 3 min 49 s<br>
Bit rate mode : Constant<br>
Bit rate : 1 536 kb/s<br>
Channel(s) : 2 channels<br>
Channel layout : L R<br>
Sampling rate : 48.0 kHz<br>
Bit depth : 16 bits<br>
Stream size : 42.0 MiB (2%)<br>
Language : English<br>
Default : Yes<br>
Alternate group : 1</div>
</div><br>
<div class="bbCodeBlock bbCodeVfcHH HiddenContent">
<div class="attribution type">Hidden Content:</div>
<blockquote>You must reply before you can see the hidden data contained here.</blockquote>
</div>
<div class="messageTextEndMarker">&nbsp;</div>
</blockquote>
</article>]]></description>
                <author><![CDATA[avril1080]]></author>
                </item>

                </channel></rss>